<svg width="262" height="64" viewBox="0 0 262 64" fill="none" xmlns="http://www.w3.org/2000/svg">
<path d="M164.547 62.044V54.3597H166.728C168.201 54.3597 169.415 55.0045 169.415 56.6058V56.6488C169.415 58.2824 168.19 58.9165 166.728 58.9165H165.482V62.044H164.547ZM165.482 58.175H166.793C167.889 58.175 168.48 57.6376 168.48 56.6488V56.6058C168.48 55.5204 167.835 55.112 166.793 55.112H165.482V58.175Z" fill="white"/>
<path d="M172.805 61.3991C173.933 61.3991 174.643 60.5501 174.643 59.2819V59.2067C174.643 57.9063 173.923 57.068 172.805 57.068C171.676 57.068 170.967 57.9063 170.967 59.1959V59.2819C170.967 60.5608 171.666 61.3991 172.805 61.3991ZM172.794 62.1407C171.193 62.1407 170.043 60.9263 170.043 59.2819V59.1959C170.043 57.5086 171.214 56.3264 172.805 56.3264C174.395 56.3264 175.567 57.4979 175.567 59.1852V59.2712C175.567 60.9692 174.395 62.1407 172.794 62.1407Z" fill="white"/>
<path d="M177.864 62.044L176.134 56.4231H177.101L178.412 60.9477L179.777 56.4231H180.551L181.83 60.9477L183.152 56.4231H184.065L182.314 62.044H181.325L180.153 57.831L178.842 62.044H177.864Z" fill="white"/>
<path d="M187.356 62.1407C185.765 62.1407 184.637 61.023 184.637 59.2927V59.2067C184.637 57.5086 185.722 56.3264 187.27 56.3264C188.57 56.3264 189.796 57.111 189.796 59.1207V59.4109H185.561C185.604 60.6898 186.217 61.3991 187.367 61.3991C188.237 61.3991 188.742 61.0767 188.861 60.4211H189.753C189.559 61.5496 188.624 62.1407 187.356 62.1407ZM185.593 58.6908H188.882C188.796 57.5301 188.194 57.068 187.27 57.068C186.356 57.068 185.744 57.6913 185.593 58.6908Z" fill="white"/>
<path d="M191.057 62.044V56.4231H191.949V57.4334C192.304 56.7993 192.787 56.3587 193.797 56.3264V57.1647C192.669 57.2184 191.949 57.5731 191.949 58.9595V62.044H191.057Z" fill="white"/>
<path d="M197.133 62.1407C195.542 62.1407 194.414 61.023 194.414 59.2927V59.2067C194.414 57.5086 195.499 56.3264 197.047 56.3264C198.347 56.3264 199.572 57.111 199.572 59.1207V59.4109H195.338C195.381 60.6898 195.993 61.3991 197.143 61.3991C198.014 61.3991 198.519 61.0767 198.637 60.4211H199.529C199.336 61.5496 198.401 62.1407 197.133 62.1407ZM195.37 58.6908H198.659C198.573 57.5301 197.971 57.068 197.047 57.068C196.133 57.068 195.521 57.6913 195.37 58.6908Z" fill="white"/>
<path d="M202.951 62.1407C201.478 62.1407 200.414 61.0982 200.414 59.3464V59.2604C200.414 57.5409 201.489 56.3264 203.037 56.3264C203.972 56.3264 204.552 56.7778 204.875 57.3259V53.7363H205.767V62.044H204.875V61.0767C204.552 61.6248 203.768 62.1407 202.951 62.1407ZM203.047 61.3991C204.09 61.3991 204.907 60.7113 204.907 59.2712V59.1852C204.907 57.7451 204.219 57.068 203.123 57.068C202.005 57.068 201.339 57.8525 201.339 59.2174V59.3034C201.339 60.7221 202.102 61.3991 203.047 61.3991Z" fill="white"/>
<path d="M212.995 62.1407C212.082 62.1407 211.415 61.6786 211.093 61.1197V62.044H210.201V53.7363H211.093V57.3689C211.415 56.8208 212.178 56.3264 212.995 56.3264C214.468 56.3264 215.553 57.4011 215.553 59.153V59.2389C215.553 60.9585 214.543 62.1407 212.995 62.1407ZM212.909 61.3991C214.027 61.3991 214.629 60.6468 214.629 59.2819V59.1959C214.629 57.7773 213.844 57.068 212.898 57.068C211.856 57.068 211.061 57.7558 211.061 59.1959V59.2819C211.061 60.7221 211.813 61.3991 212.909 61.3991Z" fill="white"/>
<path d="M217.232 64L218.296 61.4636L216.092 56.4231H217.049L218.768 60.4534L220.327 56.4231H221.24L218.134 64H217.232Z" fill="white"/>
<path d="M225.109 62.044V54.3597H226.323L230.063 60.7113V54.3597H230.955V62.044H229.881L226.001 55.4559V62.044H225.109Z" fill="white"/>
<path d="M235.014 62.1407C233.423 62.1407 232.295 61.023 232.295 59.2927V59.2067C232.295 57.5086 233.38 56.3264 234.928 56.3264C236.228 56.3264 237.453 57.111 237.453 59.1207V59.4109H233.219C233.262 60.6898 233.875 61.3991 235.025 61.3991C235.895 61.3991 236.4 61.0767 236.518 60.4211H237.41C237.217 61.5496 236.282 62.1407 235.014 62.1407ZM233.251 58.6908H236.54C236.454 57.5301 235.852 57.068 234.928 57.068C234.014 57.068 233.402 57.6913 233.251 58.6908Z" fill="white"/>
<path d="M240.424 62.1192C239.403 62.1192 238.908 61.5174 238.908 60.6361V57.1755H238.102V56.4231H238.908V55.1442H239.8V56.4231H241.111V57.1755H239.8V60.5501C239.8 61.0982 240.047 61.3669 240.499 61.3669C240.778 61.3669 240.993 61.3239 241.187 61.2487V62.001C241.004 62.0655 240.789 62.1192 240.424 62.1192Z" fill="white"/>
<path d="M244.76 62.1407C243.191 62.1407 242.008 61.0337 242.008 59.2927V59.2067C242.008 57.4871 243.234 56.3264 244.738 56.3264C245.91 56.3264 247.006 56.8638 247.178 58.2932H246.297C246.157 57.4011 245.512 57.068 244.738 57.068C243.717 57.068 242.933 57.8848 242.933 59.2067V59.2927C242.933 60.6683 243.685 61.3991 244.77 61.3991C245.566 61.3991 246.286 60.937 246.383 60.0235H247.21C247.092 61.2379 246.114 62.1407 244.76 62.1407Z" fill="white"/>
<path d="M250.792 61.3991C251.921 61.3991 252.63 60.5501 252.63 59.2819V59.2067C252.63 57.9063 251.91 57.068 250.792 57.068C249.664 57.068 248.955 57.9063 248.955 59.1959V59.2819C248.955 60.5608 249.653 61.3991 250.792 61.3991ZM250.782 62.1407C249.18 62.1407 248.03 60.9263 248.03 59.2819V59.1959C248.03 57.5086 249.202 56.3264 250.792 56.3264C252.383 56.3264 253.554 57.4979 253.554 59.1852V59.2712C253.554 60.9692 252.383 62.1407 250.782 62.1407Z" fill="white"/>
<path d="M254.828 62.044V56.4231H255.72V57.3152C255.978 56.7886 256.601 56.3264 257.526 56.3264C258.686 56.3264 259.503 56.9605 259.503 58.5941V62.044H258.611V58.5296C258.611 57.5409 258.192 57.1002 257.289 57.1002C256.462 57.1002 255.72 57.6268 255.72 58.6371V62.044H254.828Z" fill="white"/>
<path d="M81.0932 42.2726H87.3211V6.50347H100.714V0.936939H67.7004V6.50347H81.0932V42.2726Z" fill="white"/>
<path d="M101.214 14.7155H95.0961V42.2726H101.214V26.1793C101.214 21.219 105.017 20.0616 108.599 20.0616C109.646 20.0616 110.583 20.2269 111.41 20.5025V14.5502C110.859 14.4399 110.197 14.3848 109.591 14.3848C106.064 14.3848 102.371 17.0854 101.214 21.8252V14.7155Z" fill="white"/>
<path d="M127.398 23.3133C126.571 24.4156 124.808 25.2423 119.848 26.2344C114.005 27.502 110.037 29.9821 110.037 34.7771C110.037 39.4067 113.785 42.934 118.966 42.934C124.091 42.934 126.516 39.6822 127.453 35.714V42.2726H133.516V23.2582C133.516 16.0382 128.611 14.1092 122.769 14.1092C118.304 14.1092 114.887 15.6524 112.407 17.5263V23.0929C115.108 20.282 118.525 18.6837 122.052 18.6837C124.863 18.6837 127.398 19.6758 127.398 22.4315V23.3133ZM127.453 30.8088C127.453 36.2652 124.367 38.8555 121.17 38.8555C118.084 38.8555 116.155 37.0368 116.155 34.2259C116.155 31.7458 117.919 30.5884 120.84 29.5963L127.453 27.3366V30.8088Z" fill="white"/>
<path d="M136.019 28.5492C136.019 37.147 142.302 42.9891 150.734 42.9891C153.49 42.9891 155.805 42.4379 157.458 41.5561V36.5407C155.695 37.5328 153.6 38.2493 151.23 38.2493C146.435 38.2493 142.522 35.0526 142.522 28.5492C142.522 22.0457 146.435 18.8491 151.23 18.8491C153.6 18.8491 155.695 19.5655 157.458 20.5576V15.5422C155.805 14.6604 153.49 14.1092 150.734 14.1092C142.302 14.1092 136.019 19.9513 136.019 28.5492Z" fill="white"/>
<path d="M172.065 42.9891C176.033 42.9891 180.222 41.8868 183.033 39.2964V33.9504C180.167 36.7061 177.191 38.2493 173.223 38.2493C168.152 38.2493 164.57 35.0526 164.349 28.8247H184.356C184.466 19.4002 178.844 14.1092 171.569 14.1092C164.239 14.1092 157.901 19.5104 157.901 28.6043C157.901 37.5328 164.184 42.9891 172.065 42.9891ZM171.404 18.5735C175.207 18.5735 177.522 20.7781 177.852 25.1321H164.57C165.121 21.1639 167.05 18.5735 171.404 18.5735Z" fill="white"/>
<path d="M193.155 42.2726V0.936939H187.038V42.2726H193.155Z" fill="white"/>
<path d="M200.755 7.71599C202.959 7.71599 204.613 6.11768 204.613 3.85799C204.613 1.65342 202.959 0 200.755 0C198.495 0 196.897 1.65342 196.897 3.85799C196.897 6.11768 198.495 7.71599 200.755 7.71599ZM203.896 42.2726V14.7155H197.779V42.2726H203.896Z" fill="white"/>
<path d="M214.637 14.7155H208.519V42.2726H214.637V24.9116C214.637 20.6127 217.283 18.6837 220.755 18.6837C224.227 18.6837 226.266 20.7781 226.266 25.2974V42.2726H232.384V23.8645C232.384 17.3059 229.022 14.1092 223.51 14.1092C218.936 14.1092 215.85 16.6996 214.637 20.6127V14.7155Z" fill="white"/>
<path d="M249.098 42.9891C253.066 42.9891 257.255 41.8868 260.066 39.2964V33.9504C257.2 36.7061 254.224 38.2493 250.255 38.2493C245.185 38.2493 241.603 35.0526 241.382 28.8247H261.389C261.499 19.4002 255.877 14.1092 248.602 14.1092C241.272 14.1092 234.934 19.5104 234.934 28.6043C234.934 37.5328 241.217 42.9891 249.098 42.9891ZM248.437 18.5735C252.24 18.5735 254.554 20.7781 254.885 25.1321H241.603C242.154 21.1639 244.083 18.5735 248.437 18.5735Z" fill="white"/>
<path fill-rule="evenodd" clip-rule="evenodd" d="M7.03474 0.0277111C9.88304 -0.23423 11.8788 1.41258 13.2472 2.78303C15.5546 5.09267 17.7802 7.1715 20.0558 9.4485C20.426 9.81977 20.8242 10.1675 21.1724 10.5661C22.5233 12.1127 24.0609 13.5317 25.5992 15.0715C25.9147 15.3874 26.4715 16.0684 26.8265 16.0775C27.1739 16.0851 27.6958 15.4754 27.9802 15.1839C28.9724 14.1703 30.0844 13.0777 30.9947 12.1674C33.7133 9.44546 36.2953 6.89817 39.0678 4.12463C40.4058 2.78531 41.7227 1.35184 43.5697 0.58652C45.8377 -0.353433 48.4752 0.230431 50.0802 1.18253C51.9341 2.28193 52.9498 3.78373 53.5027 5.80029C53.8024 6.89286 53.7637 8.22458 53.7637 9.59883C53.7629 16.5278 53.7637 22.7969 53.7637 29.6704C53.7629 30.9285 53.8115 32.3057 53.7637 33.6177C53.7151 34.9586 53.7887 36.2637 53.5027 37.3791C52.9847 39.3994 51.7998 41.0531 50.0802 42.034C48.4046 42.9899 45.8134 43.387 43.5697 42.444C41.7371 41.6734 40.4476 40.1754 39.1049 38.8323C37.7494 37.4747 36.2923 36.1293 35.0119 34.8849C34.3421 34.2335 33.7231 33.4962 33.0033 32.8372C32.316 32.207 31.6637 31.4964 30.9954 30.8267C30.0518 29.8822 29.0187 28.8474 27.9438 27.8474C27.651 27.5749 27.1345 26.9287 26.8652 26.9166C26.4427 26.8984 25.5605 27.9985 25.3018 28.2574C23.8485 29.7129 22.3185 31.1874 20.9493 32.614C18.987 34.6587 17.0467 36.4467 15.1086 38.3858C13.2722 40.224 11.4957 42.6991 8.07772 42.9664C6.21552 43.1122 4.68555 42.5374 3.46506 41.7751C1.74849 40.7023 0.367192 38.934 0.0797058 36.4497C-0.017387 35.6138 0.0417789 34.5622 0.0417789 33.5828C0.0425375 25.9447 0.00309352 18.1093 0.0046106 10.3831C0.0046106 8.44401 -0.0735188 6.49501 0.413462 5.05851C1.36163 2.25915 3.71234 0.332171 7.03474 0.0277111ZM7.63019 7.88444C7.50806 8.25116 7.55509 8.85552 7.55509 9.4485C7.55661 18.0721 7.47089 26.5833 7.63019 35.1431C8.02159 35.1803 8.22716 34.768 8.44789 34.547C12.2011 30.7903 16.0439 27.0851 19.7577 23.3382C20.2742 22.6967 21.0548 22.2859 21.3946 21.5138C21.3241 21.0886 20.9198 20.8524 20.6505 20.5829C18.6396 18.5709 16.6666 16.6333 14.6611 14.6251C13.0075 12.9699 11.1475 11.3056 9.52729 9.52366C9.09113 9.04381 8.27039 8.13271 7.74169 7.84799C7.75231 7.77131 7.63398 7.85483 7.63019 7.88444ZM46.0607 7.81003C45.4804 8.28912 44.8167 8.90487 44.2008 9.5229C42.4531 11.2722 40.8245 12.8651 39.0663 14.6243C37.4415 16.2506 35.5853 17.9977 33.9317 19.6885C33.5107 20.1182 32.3843 21.0438 32.4063 21.5874C32.4215 21.9458 32.9145 22.2221 33.1876 22.481C33.5274 22.803 33.8119 23.1188 34.0432 23.3375C36.8331 26.2545 39.7876 29.0076 42.6367 31.8646C43.5014 32.7218 44.3684 33.598 45.2036 34.4339C45.4835 34.7141 45.7603 35.0762 46.1707 35.1787C46.3717 34.1059 46.2822 32.9792 46.2822 31.8646C46.283 24.383 46.2815 16.7988 46.2822 9.37333C46.2822 8.80465 46.4203 8.12512 46.0964 7.80927C46.085 7.81003 46.0729 7.81003 46.0607 7.81003Z" fill="white"/>
</svg>
